<?xml version="1.0" encoding="utf-8"?>
<!-- Generator: Adobe Illustrator 19.0.0, SVG Export Plug-In . SVG Version: 6.00 Build 0)  -->
<svg version="1.1" id="Layer_1" xmlns="http://www.w3.org/2000/svg" xmlns:xlink="http://www.w3.org/1999/xlink" x="0px" y="0px"
	 viewBox="-49 141 512 512" style="enable-background:new -49 141 512 512;" xml:space="preserve">
<style type="text/css">
	.st0{fill:#333441;}
</style>
<path class="st0" d="M454.9,619L312,476.1c28.7-34.5,46-78.9,46-127.3c0-110.1-89.2-199.3-199.3-199.3
	c-110.1,0-199.3,89.2-199.3,199.3c0,110.1,89.2,199.3,199.3,199.3c48.4,0,92.8-17.3,127.3-46l142.9,142.9L454.9,619z M-19.7,348.7
	c0-98.3,80-178.3,178.3-178.3c98.3,0,178.3,80,178.3,178.3S257,527,158.7,527C60.3,527-19.7,447-19.7,348.7z"/>
</svg>
